<svg xmlns="http://www.w3.org/2000/svg" xmlns:xlink="http://www.w3.org/1999/xlink" version="1.1" x="0px" y="0px" viewBox="0 0 64 80" enable-background="new 0 0 64 64" xml:space="preserve"><g display="none"><rect x="-250.076" y="-28.113" display="inline" fill="#000000" width="824.576" height="414.113"/></g><g display="none"><g display="inline"><path d="M19.512,34.919c-2.361,0-4.275,1.914-4.275,4.275c0,2.361,1.914,4.275,4.275,4.275s4.275-1.914,4.275-4.275h-4.275V34.919    z"/></g><g display="inline"><path d="M20.393,34.037v4.275h4.275C24.668,35.951,22.754,34.037,20.393,34.037z"/></g><g display="inline"><path d="M19.512,48.036c-2.361,0-4.275,1.914-4.275,4.275c0,2.361,1.914,4.275,4.275,4.275s4.275-1.914,4.275-4.275h-4.275V48.036    z"/></g><g display="inline"><path d="M20.393,47.155v4.275h4.275C24.668,49.069,22.754,47.155,20.393,47.155z"/></g><line display="inline" fill="none" stroke="#000000" stroke-width="2" stroke-miterlimit="10" x1="27.876" y1="37.42" x2="48.764" y2="37.42"/><line display="inline" fill="none" stroke="#000000" stroke-width="2" stroke-miterlimit="10" x1="27.876" y1="40.928" x2="48.764" y2="40.928"/><line display="inline" fill="none" stroke="#000000" stroke-width="2" stroke-miterlimit="10" x1="27.876" y1="50.13" x2="48.764" y2="50.13"/><line display="inline" fill="none" stroke="#000000" stroke-width="2" stroke-miterlimit="10" x1="27.876" y1="53.638" x2="48.764" y2="53.638"/><g display="inline"><g><line fill="none" stroke="#000000" stroke-width="2" stroke-miterlimit="10" x1="35.584" y1="22.312" x2="35.584" y2="25.529"/><line fill="none" stroke="#000000" stroke-width="2" stroke-miterlimit="10" x1="38.657" y1="14.84" x2="38.657" y2="25.529"/><line fill="none" stroke="#000000" stroke-width="2" stroke-miterlimit="10" x1="41.73" y1="9.409" x2="41.73" y2="25.529"/><line fill="none" stroke="#000000" stroke-width="2" stroke-miterlimit="10" x1="44.803" y1="14.499" x2="44.803" y2="25.529"/><line fill="none" stroke="#000000" stroke-width="2" stroke-miterlimit="10" x1="47.876" y1="19.691" x2="47.876" y2="25.529"/></g><g><path d="M22.681,11.409c0.953,0,1.728,0.775,1.728,1.728s-0.775,1.728-1.728,1.728s-1.728-0.775-1.728-1.728     S21.728,11.409,22.681,11.409 M22.681,9.409c-2.059,0-3.728,1.669-3.728,3.728s1.669,3.728,3.728,3.728     c2.059,0,3.728-1.669,3.728-3.728S24.74,9.409,22.681,9.409L22.681,9.409z"/></g><g><path d="M17.764,20.027l1.616,3.503h-2.255v-2.282C17.124,20.622,17.401,20.248,17.764,20.027 M18.903,17.721     c0,0-3.778,0.05-3.778,3.526s0,4.282,0,4.282s7.355,0,7.38,0L18.903,17.721L18.903,17.721z M22.505,25.529     C22.505,25.529,22.505,25.529,22.505,25.529C22.505,25.529,22.505,25.529,22.505,25.529L22.505,25.529z"/></g><g><path d="M27.598,20.027c0.363,0.221,0.639,0.595,0.639,1.22v2.282h-2.255L27.598,20.027 M26.459,17.721l-3.602,7.808h0h7.38     c0,0,0-0.806,0-4.282S26.459,17.721,26.459,17.721L26.459,17.721z"/></g><g><polygon points="24.929,18.104 22.681,18.104 20.432,18.104 22.681,23.081 24.929,18.104    "/></g></g><g display="inline"><path d="M48.835,2L55.5,8.665V62h-47V2H48.835 M49.664,0H6.5v64h51V7.836L49.664,0L49.664,0z"/></g></g><g><g><path d="M15.236,39.194c0,2.361,1.914,4.275,4.275,4.275c2.361,0,4.275-1.914,4.275-4.275h-4.275v-4.275    C17.15,34.919,15.236,36.833,15.236,39.194z M22.631,40.194c-0.424,1.318-1.662,2.275-3.119,2.275    c-1.806,0-3.275-1.469-3.275-3.275c0-1.457,0.957-2.695,2.275-3.119v3.119v1h1H22.631z"/><path d="M20.393,34.037v4.275h4.275C24.668,35.951,22.754,34.037,20.393,34.037z M21.393,37.312v-2.119    c1.003,0.322,1.797,1.116,2.119,2.119H21.393z"/><path d="M19.512,48.036c-2.361,0-4.275,1.914-4.275,4.275c0,2.361,1.914,4.275,4.275,4.275c2.361,0,4.275-1.914,4.275-4.275    h-4.275V48.036z M22.631,53.311c-0.424,1.318-1.662,2.275-3.119,2.275c-1.806,0-3.275-1.469-3.275-3.275    c0-1.457,0.957-2.695,2.275-3.119v3.119v1h1H22.631z"/><path d="M20.393,47.155v4.275h4.275C24.668,49.069,22.754,47.155,20.393,47.155z M21.393,50.43v-2.119    c1.003,0.322,1.797,1.116,2.119,2.119H21.393z"/><rect x="27.876" y="36.921" width="20.888" height="1"/><rect x="27.876" y="40.429" width="20.888" height="1"/><rect x="27.876" y="49.63" width="20.888" height="1"/><rect x="27.876" y="53.138" width="20.888" height="1"/><rect x="35.084" y="22.312" width="1" height="3.217"/><rect x="38.157" y="14.84" width="1" height="10.689"/><rect x="41.229" y="9.409" width="1" height="16.121"/><rect x="44.303" y="14.5" width="1" height="11.03"/><rect x="47.376" y="19.691" width="1" height="5.838"/><path d="M22.681,16.865c2.059,0,3.728-1.669,3.728-3.728c0-2.059-1.669-3.728-3.728-3.728c-2.059,0-3.728,1.669-3.728,3.728    C18.953,15.195,20.622,16.865,22.681,16.865z M22.681,10.409c1.504,0,2.728,1.224,2.728,2.728c0,1.504-1.224,2.728-2.728,2.728    c-1.504,0-2.728-1.224-2.728-2.728C19.953,11.632,21.177,10.409,22.681,10.409z"/><path d="M18.903,17.721c0,0-3.778,0.05-3.778,3.526s0,4.282,0,4.282s7.355,0,7.38,0L18.903,17.721z M16.124,21.247    c0-0.376,0.113-2.123,2.165-2.469l2.653,5.751h-4.818V21.247z"/><path d="M30.237,25.529c0,0,0-0.806,0-4.282s-3.778-3.526-3.778-3.526l-3.602,7.808H30.237z M27.072,18.779    c2.052,0.345,2.165,2.093,2.165,2.469v3.282H24.42L27.072,18.779z"/><path d="M22.681,18.104h-2.248l2.248,4.977l2.248-4.977H22.681z M21.982,19.104h0.699h0.699l-0.699,1.548L21.982,19.104z"/><path d="M57.5,7.836L49.664,0H6.5v64h51V7.836z M56.5,63h-49V1h41.75l7.25,7.25V63z"/></g></g><g display="none"><g display="inline"><g><path d="M21.393,48.311v2.119h2.119C23.19,49.427,22.396,48.633,21.393,48.311z"/></g><g><path d="M18.512,53.311v-1v-3.119c-1.318,0.424-2.275,1.662-2.275,3.119c0,1.806,1.469,3.275,3.275,3.275     c1.457,0,2.695-0.957,3.119-2.275h-3.119H18.512z"/></g><g><path d="M18.512,40.194v-1v-3.119c-1.318,0.424-2.275,1.662-2.275,3.119c0,1.806,1.469,3.275,3.275,3.275     c1.457,0,2.695-0.957,3.119-2.275h-3.119H18.512z"/></g><g><path d="M18.289,18.779c-2.052,0.345-2.165,2.093-2.165,2.469v3.282h4.818L18.289,18.779z"/></g><g><polygon points="21.982,19.104 22.681,20.652 23.38,19.104 22.681,19.104    "/></g><g><path d="M29.237,24.529v-3.282c0-0.376-0.113-2.123-2.165-2.469l-2.653,5.751H29.237z"/></g><g><circle cx="22.681" cy="13.137" r="2.728"/></g><g><path d="M21.393,35.193v2.119h2.119C23.19,36.31,22.396,35.516,21.393,35.193z"/></g><g><path d="M57.5,7.836L49.664,0H6.5v64h51V7.836z M47.376,19.691h1v5.838h-1V19.691z M44.303,14.5h1v11.03h-1V14.5z M41.229,9.409     h1v16.121h-1V9.409z M38.157,14.84h1v10.689h-1V14.84z M35.084,22.312h1v3.217h-1V22.312z M30.237,21.247     c0,3.476,0,4.282,0,4.282h-7.38l3.602-7.808C26.459,17.721,30.237,17.771,30.237,21.247z M22.681,23.081l-2.248-4.977h2.248     h2.248L22.681,23.081z M22.681,9.409c2.059,0,3.728,1.669,3.728,3.728c0,2.059-1.669,3.728-3.728,3.728     c-2.059,0-3.728-1.669-3.728-3.728C18.953,11.078,20.622,9.409,22.681,9.409z M15.124,21.247c0-3.476,3.778-3.526,3.778-3.526     l3.602,7.808c-0.025,0-7.38,0-7.38,0S15.124,24.723,15.124,21.247z M23.787,39.194c0,2.361-1.914,4.275-4.275,4.275     c-2.361,0-4.275-1.914-4.275-4.275c0-2.361,1.914-4.275,4.275-4.275v4.275H23.787z M19.512,56.587     c-2.361,0-4.275-1.914-4.275-4.275c0-2.361,1.914-4.275,4.275-4.275v4.275h4.275C23.787,54.672,21.873,56.587,19.512,56.587z      M20.393,51.43v-4.275c2.361,0,4.275,1.914,4.275,4.275H20.393z M20.393,38.312v-4.275c2.361,0,4.275,1.914,4.275,4.275H20.393z      M48.764,54.138H27.876v-1h20.888V54.138z M48.764,50.63H27.876v-1h20.888V50.63z M48.764,41.429H27.876v-1h20.888V41.429z      M48.764,37.921H27.876v-1h20.888V37.921z"/></g></g></g></svg>